<svg xmlns="http://www.w3.org/2000/svg" viewBox="0 0 24 24" fill="#000">
  <path d="M22 7h-7V5h7v2zm1.726 10c-.442 1.297-2.029 3-5.101 3-3.074 0-5.564-1.729-5.564-5.675 0-3.91 2.325-5.92 5.466-5.92 3.082 0 4.964 1.782 5.375 4.426.078.506.109 1.188.095 2.14h-8.027c.13 3.211 3.483 3.312 4.588 2.029h3.168zm-7.686-4h4.965c-.105-1.547-1.136-2.219-2.477-2.219-1.466 0-2.277.768-2.488 2.219zM7.336 5.75h3.254c.84 0 1.521.264 2.04.792.519.528.779 1.226.779 2.094 0 .888-.271 1.593-.811 2.115-.54.522-1.229.783-2.068.783H7.336V5.75zm0 6.714h3.697c.933 0 1.658.27 2.176.81.518.54.777 1.292.777 2.256 0 .684-.15 1.206-.45 1.566-.3.36-.726.54-1.277.54H7.336v-5.172zM2 3h9.5c1.2 0 2.23.33 3.09.99.86.66 1.29 1.65 1.29 2.97 0 .87-.28 1.65-.84 2.34-.56.69-1.28 1.13-2.16 1.32v.12c1.09.18 1.94.68 2.55 1.5.61.82.915 1.83.915 3.03 0 1.38-.47 2.48-1.41 3.3-.94.82-2.19 1.23-3.75 1.23H2V3z"/>
</svg>
